<?xml version="1.0" encoding="utf-8"?>
<!-- Generator: Adobe Illustrator 25.2.1, SVG Export Plug-In . SVG Version: 6.00 Build 0)  -->
<svg width="34" height="34" version="1.1" id="Capa_1" xmlns="http://www.w3.org/2000/svg" xmlns:xlink="http://www.w3.org/1999/xlink" x="0px" y="0px"
	 viewBox="0 0 34 34" style="enable-background:new 0 0 34 34;" xml:space="preserve">
<style type="text/css">
	.st0{fill:#ED8848;}
	.st1{fill:#FFFFFF;}
</style>
<path class="st0" d="M0,17C0,7.6,7.6,0,17,0c9.4,0,17,7.6,17,17c0,9.4-7.6,17-17,17C7.6,34,0,26.4,0,17z"/>
<path class="st1" d="M17,0C7.6,0,0,7.6,0,17s7.6,17,17,17s17-7.6,17-17S26.4,0,17,0z M13.6,25.5L5.1,17L8,14.1l5.6,5.4L26,7.3
	l2.9,2.9L13.6,25.5z"/>
</svg>
